<svg width="24" height="24" viewBox="0 0 24 24" fill="none" xmlns="http://www.w3.org/2000/svg">
<path d="M11.4072 16.9327L11.4072 5.09283C11.4072 4.48928 11.8964 4 12.5 4V4C13.1035 4 13.5928 4.48927 13.5928 5.09283L13.5928 16.9327L18.7039 11.9636C19.1219 11.5571 19.7876 11.5571 20.2056 11.9636V11.9636C20.6407 12.3865 20.6407 13.0852 20.2056 13.5082L13.8942 19.6445C13.1179 20.3992 11.8821 20.3992 11.1058 19.6445L4.79437 13.5082C4.35931 13.0852 4.35931 12.3865 4.79437 11.9636V11.9636C5.21244 11.5571 5.87807 11.5571 6.29615 11.9636L11.4072 16.9327Z" fill="#29ABE2"/>
</svg>
